<svg width="49" height="31" viewBox="0 0 49 31" fill="none" xmlns="http://www.w3.org/2000/svg">
<path d="M45.9375 0H3.0625C2.25027 0 1.47132 0.322656 0.896985 0.896986C0.322655 1.47132 0 2.25027 0 3.0625V27.5625C0 28.3747 0.322655 29.1537 0.896985 29.728C1.47132 30.3023 2.25027 30.625 3.0625 30.625H45.9375C46.7497 30.625 47.5287 30.3023 48.103 29.728C48.6773 29.1537 49 28.3747 49 27.5625V3.0625C49 2.25027 48.6773 1.47132 48.103 0.896986C47.5287 0.322656 46.7497 0 45.9375 0ZM26.0312 7.65625H29.0938V10.7188H26.0312V7.65625ZM26.0312 13.7813H29.0938V16.8438H26.0312V13.7813ZM19.9062 7.65625H22.9688V10.7188H19.9062V7.65625ZM19.9062 13.7813H22.9688V16.8438H19.9062V13.7813ZM13.7812 7.65625H16.8438V10.7188H13.7812V7.65625ZM10.7188 24.5H7.65625V21.4375H10.7188V24.5ZM10.7188 16.8438H7.65625V13.7813H10.7188V16.8438ZM10.7188 10.7188H7.65625V7.65625H10.7188V10.7188ZM13.7812 13.7813H16.8438V16.8438H13.7812V13.7813ZM35.035 24.5H13.9803V21.4375H35.035V24.5ZM35.2188 16.8438H32.1562V13.7813H35.2188V16.8438ZM35.2188 10.7188H32.1562V7.65625H35.2188V10.7188ZM41.2519 24.5H38.2812V21.4375H41.2519V24.5ZM41.3438 16.8438H38.2812V13.7813H41.3438V16.8438ZM41.3438 10.7188H38.2812V7.65625H41.3438V10.7188Z" fill="url(#paint0_linear_1_282)"/>
<defs>
<linearGradient id="paint0_linear_1_282" x1="0" y1="0" x2="38.3688" y2="40.6577" gradientUnits="userSpaceOnUse">
<stop stop-color="#FF0053"/>
<stop offset="1" stop-color="#CD0069"/>
</linearGradient>
</defs>
</svg>
