<svg width="51" height="51" viewBox="0 0 51 51" fill="none" xmlns="http://www.w3.org/2000/svg">
<path d="M25.5 1C11.9703 1 1 11.9703 1 25.5C1 39.0297 11.9703 50 25.5 50C39.0297 50 50 39.0297 50 25.5C50 11.9703 39.0297 1 25.5 1ZM25.5 45.8438C14.2672 45.8438 5.15625 36.7328 5.15625 25.5C5.15625 14.2672 14.2672 5.15625 25.5 5.15625C36.7328 5.15625 45.8438 14.2672 45.8438 25.5C45.8438 36.7328 36.7328 45.8438 25.5 45.8438Z" fill="url(#paint0_linear_106_4)" stroke="url(#paint1_linear_106_4)"/>
<path d="M30.7352 14.9694C29.3285 13.6968 27.4717 13 25.5023 13C23.533 13 21.6761 13.7016 20.2695 14.9694C18.8065 16.2903 18 18.0661 18 19.9677V20.3355C18 20.5484 18.1688 20.7226 18.3751 20.7226H20.6258C20.8321 20.7226 21.0009 20.5484 21.0009 20.3355V19.9677C21.0009 17.8339 23.0219 16.0968 25.5023 16.0968C27.9828 16.0968 30.0037 17.8339 30.0037 19.9677C30.0037 21.4726 28.9722 22.8516 27.3732 23.4855C26.3792 23.8774 25.5352 24.5645 24.9303 25.4645C24.316 26.3839 23.9972 27.4871 23.9972 28.6048V29.6452C23.9972 29.8581 24.166 30.0323 24.3723 30.0323H26.623C26.8293 30.0323 26.9981 29.8581 26.9981 29.6452V28.5468C27.0005 28.077 27.1401 27.619 27.3985 27.2323C27.657 26.8456 28.0224 26.5482 28.447 26.379C31.2135 25.2806 33 22.7645 33 19.9677C33.0047 18.0661 32.1982 16.2903 30.7352 14.9694ZM23.6268 35.0645C23.6268 35.5778 23.8244 36.0701 24.1761 36.4331C24.5278 36.7961 25.0049 37 25.5023 37C25.9998 37 26.4768 36.7961 26.8286 36.4331C27.1803 36.0701 27.3779 35.5778 27.3779 35.0645C27.3779 34.5512 27.1803 34.0589 26.8286 33.6959C26.4768 33.3329 25.9998 33.129 25.5023 33.129C25.0049 33.129 24.5278 33.3329 24.1761 33.6959C23.8244 34.0589 23.6268 34.5512 23.6268 35.0645Z" fill="url(#paint2_linear_106_4)"/>
<defs>
<linearGradient id="paint0_linear_106_4" x1="1" y1="1" x2="57.6181" y2="38.4973" gradientUnits="userSpaceOnUse">
<stop stop-color="#FF0053"/>
<stop offset="1" stop-color="#CD0069"/>
</linearGradient>
<linearGradient id="paint1_linear_106_4" x1="1" y1="1" x2="57.6181" y2="38.4973" gradientUnits="userSpaceOnUse">
<stop stop-color="#FF0053"/>
<stop offset="1" stop-color="#CD0069"/>
</linearGradient>
<linearGradient id="paint2_linear_106_4" x1="18" y1="13" x2="39.287" y2="21.8113" gradientUnits="userSpaceOnUse">
<stop stop-color="#FF0053"/>
<stop offset="1" stop-color="#CD0069"/>
</linearGradient>
</defs>
</svg>
