<svg width="21" height="21" viewBox="0 0 21 21" fill="none" xmlns="http://www.w3.org/2000/svg">
<path d="M4.22333 9.08833C5.90333 12.39 8.61 15.085 11.9117 16.7767L14.4783 14.21C14.7933 13.895 15.26 13.79 15.6683 13.93C16.975 14.3617 18.3867 14.595 19.8333 14.595C20.475 14.595 21 15.12 21 15.7617V19.8333C21 20.475 20.475 21 19.8333 21C8.87833 21 0 12.1217 0 1.16667C0 0.525 0.525 0 1.16667 0H5.25C5.89167 0 6.41667 0.525 6.41667 1.16667C6.41667 2.625 6.65 4.025 7.08167 5.33167C7.21 5.74 7.11667 6.195 6.79 6.52167L4.22333 9.08833Z" fill="#6E6E73"/>
</svg>
