<svg width="19" height="19" viewBox="0 0 19 19" fill="none" xmlns="http://www.w3.org/2000/svg">
<path d="M2.375 19C1.72187 19 1.16296 18.7876 0.69825 18.3627C0.23275 17.9371 0 17.4257 0 16.8286V7.05714C0 6.71333 0.0843123 6.38762 0.252937 6.08C0.420771 5.77238 0.653125 5.51905 0.95 5.32L8.075 0.434286C8.29271 0.289524 8.52031 0.180952 8.75781 0.108571C8.99531 0.0361904 9.24271 0 9.5 0C9.75729 0 10.0047 0.0361904 10.2422 0.108571C10.4797 0.180952 10.7073 0.289524 10.925 0.434286L18.05 5.32C18.3469 5.51905 18.5796 5.77238 18.7483 6.08C18.9161 6.38762 19 6.71333 19 7.05714V16.8286C19 17.4257 18.7676 17.9371 18.3029 18.3627C17.8374 18.7876 17.2781 19 16.625 19H11.875V11.4H7.125V19H2.375Z" fill="#6E6E73"/>
</svg>
