<svg width="23" height="19" viewBox="0 0 23 19" fill="none" xmlns="http://www.w3.org/2000/svg">
<path d="M3.1 18C2.5225 18 2.0283 17.7921 1.6174 17.3763C1.2058 16.9598 1 16.4594 1 15.875V3.125C1 2.54062 1.2058 2.04054 1.6174 1.62475C2.0283 1.20825 2.5225 1 3.1 1H19.9C20.4775 1 20.972 1.20825 21.3836 1.62475C21.7945 2.04054 22 2.54062 22 3.125V15.875C22 16.4594 21.7945 16.9598 21.3836 17.3763C20.972 17.7921 20.4775 18 19.9 18H3.1ZM19.9 5.25L12.0512 10.2172C11.9637 10.2703 11.8717 10.31 11.7751 10.3362C11.6792 10.3631 11.5875 10.3766 11.5 10.3766C11.4125 10.3766 11.3208 10.3631 11.2249 10.3362C11.1283 10.31 11.0363 10.2703 10.9487 10.2172L3.1 5.25V15.875H19.9V5.25ZM11.5 8.4375L19.9 3.125H3.1L11.5 8.4375ZM3.1 5.25V5.51562V3.94844V3.975V3.125V3.975V3.96119V5.51562V5.25V15.875V5.25Z" fill="#6E6E73"/>
<path d="M3.1 5.25V5.51562V3.94844V3.975V3.125V3.975V3.96119V5.51562V5.25ZM3.1 5.25V15.875V5.25ZM3.1 18C2.5225 18 2.0283 17.7921 1.6174 17.3763C1.2058 16.9598 1 16.4594 1 15.875V3.125C1 2.54062 1.2058 2.04054 1.6174 1.62475C2.0283 1.20825 2.5225 1 3.1 1H19.9C20.4775 1 20.972 1.20825 21.3836 1.62475C21.7945 2.04054 22 2.54062 22 3.125V15.875C22 16.4594 21.7945 16.9598 21.3836 17.3763C20.972 17.7921 20.4775 18 19.9 18H3.1ZM19.9 5.25L12.0512 10.2172C11.9637 10.2703 11.8717 10.31 11.7751 10.3362C11.6792 10.3631 11.5875 10.3766 11.5 10.3766C11.4125 10.3766 11.3208 10.3631 11.2249 10.3362C11.1283 10.31 11.0362 10.2703 10.9487 10.2172L3.1 5.25V15.875H19.9V5.25ZM11.5 8.4375L19.9 3.125H3.1L11.5 8.4375Z" stroke="#6E6E73" stroke-width="0.5"/>
</svg>
