<svg width="49" height="31" viewBox="0 0 49 31" fill="none" xmlns="http://www.w3.org/2000/svg">
<path fill-rule="evenodd" clip-rule="evenodd" d="M12.25 4.59375V26.0312H15.3125V4.59375H12.25ZM10.7188 0C9.90652 0 9.12757 0.322655 8.55324 0.896985C7.97891 1.47132 7.65625 2.25027 7.65625 3.0625V27.5625C7.65625 28.3747 7.97891 29.1537 8.55324 29.728C9.12757 30.3023 9.90652 30.625 10.7188 30.625H16.8438C17.656 30.625 18.4349 30.3023 19.0093 29.728C19.5836 29.1537 19.9062 28.3747 19.9062 27.5625V17.6094H29.0938V27.5625C29.0938 28.3747 29.4164 29.1537 29.9907 29.728C30.5651 30.3023 31.344 30.625 32.1562 30.625H38.2812C39.0935 30.625 39.8724 30.3023 40.4468 29.728C41.0211 29.1537 41.3438 28.3747 41.3438 27.5625V3.0625C41.3438 2.25027 41.0211 1.47132 40.4468 0.896985C39.8724 0.322655 39.0935 0 38.2812 0H32.1562C31.344 0 30.5651 0.322655 29.9907 0.896985C29.4164 1.47132 29.0938 2.25027 29.0938 3.0625V13.0156H19.9062V3.0625C19.9062 2.25027 19.5836 1.47132 19.0093 0.896985C18.4349 0.322655 17.656 0 16.8438 0H10.7188ZM33.6875 4.59375V26.0312H36.75V4.59375H33.6875ZM46.7031 6.89062C47.3123 6.89062 47.8965 7.13262 48.3273 7.56336C48.758 7.99411 49 8.57833 49 9.1875V22.9688C49 23.5779 48.758 24.1621 48.3273 24.5929C47.8965 25.0236 47.3123 25.2656 46.7031 25.2656C46.094 25.2656 45.5097 25.0236 45.079 24.5929C44.6482 24.1621 44.4062 23.5779 44.4062 22.9688V9.1875C44.4062 8.57833 44.6482 7.99411 45.079 7.56336C45.5097 7.13262 46.094 6.89062 46.7031 6.89062ZM4.59375 9.1875C4.59375 8.57833 4.35176 7.99411 3.92101 7.56336C3.49026 7.13262 2.90604 6.89062 2.29688 6.89062C1.68771 6.89062 1.10349 7.13262 0.672739 7.56336C0.241991 7.99411 0 8.57833 0 9.1875L0 22.9688C0 23.5779 0.241991 24.1621 0.672739 24.5929C1.10349 25.0236 1.68771 25.2656 2.29688 25.2656C2.90604 25.2656 3.49026 25.0236 3.92101 24.5929C4.35176 24.1621 4.59375 23.5779 4.59375 22.9688V9.1875Z" fill="url(#paint0_linear_1_285)"/>
<defs>
<linearGradient id="paint0_linear_1_285" x1="0" y1="0" x2="38.3688" y2="40.6577" gradientUnits="userSpaceOnUse">
<stop stop-color="#FF0053"/>
<stop offset="1" stop-color="#CD0069"/>
</linearGradient>
</defs>
</svg>
