<svg width="42" height="23" viewBox="0 0 42 23" fill="none" xmlns="http://www.w3.org/2000/svg">
<path d="M30.0909 1H11.9091C5.89091 1 1 5.7075 1 11.5C1 17.2925 5.89091 22 11.9091 22H30.0909C36.1091 22 41 17.2925 41 11.5C41 5.7075 36.1091 1 30.0909 1ZM30.0909 18.5H11.9091C7.89091 18.5 4.63636 15.3675 4.63636 11.5C4.63636 7.6325 7.89091 4.5 11.9091 4.5H30.0909C34.1091 4.5 37.3636 7.6325 37.3636 11.5C37.3636 15.3675 34.1091 18.5 30.0909 18.5ZM11.9091 6.25C8.89091 6.25 6.45455 8.595 6.45455 11.5C6.45455 14.405 8.89091 16.75 11.9091 16.75C14.9273 16.75 17.3636 14.405 17.3636 11.5C17.3636 8.595 14.9273 6.25 11.9091 6.25Z" fill="#434343" stroke="white" stroke-width="0.5"/>
</svg>
