<svg width="20" height="20" viewBox="0 0 20 20" fill="none" xmlns="http://www.w3.org/2000/svg">
<path fill-rule="evenodd" clip-rule="evenodd" d="M4.39644 0.501987C5.62391 0.0103543 6.9655 -0.12367 8.26597 0.115423C9.56644 0.354516 10.7726 0.956953 11.745 1.85302C12.7173 2.74909 13.4161 3.90217 13.7603 5.17883C14.1046 6.45548 14.0804 7.80353 13.6904 9.06699L18.0844 12.785C18.4802 13.1213 18.8021 13.5361 19.0296 14.003C19.2572 14.4699 19.3855 14.9789 19.4065 15.4979C19.4276 16.0169 19.3408 16.5346 19.1518 17.0184C18.9628 17.5022 18.6756 17.9416 18.3083 18.3089C17.9411 18.6762 17.5017 18.9634 17.0179 19.1524C16.5341 19.3414 16.0163 19.4281 15.4973 19.4071C14.9784 19.386 14.4694 19.2577 14.0024 19.0302C13.5355 18.8026 13.1208 18.4808 12.7844 18.085L9.06744 13.691C7.80388 14.0811 6.45567 14.1054 5.17888 13.761C3.90208 13.4167 2.74889 12.7179 1.85277 11.7454C0.956652 10.7729 0.354248 9.56651 0.115278 8.26587C-0.123692 6.96523 0.010542 5.62351 0.502444 4.39599C0.860444 3.50199 1.98244 3.38899 2.56544 4.02299L5.76844 7.50099L7.21444 7.21299L7.50444 5.76399L4.02444 2.56599C3.39044 1.98299 3.50244 0.859987 4.39744 0.501987H4.39644ZM6.40344 2.03799L9.16644 4.57799C9.48844 4.87399 9.63244 5.31599 9.54644 5.74299L9.07644 8.09699C9.02802 8.33924 8.9089 8.56172 8.73412 8.73632C8.55935 8.91092 8.33675 9.02981 8.09444 9.07799L5.74444 9.54499C5.53412 9.58681 5.31658 9.57382 5.11273 9.50727C4.90888 9.44072 4.72558 9.32285 4.58044 9.16499L2.03644 6.40299C1.93289 7.26313 2.05452 8.13542 2.38942 8.93443C2.72432 9.73344 3.261 10.4318 3.94691 10.961C4.63281 11.4903 5.44442 11.8323 6.30225 11.9536C7.16007 12.0749 8.03469 11.9713 8.84044 11.653C9.08482 11.556 9.35345 11.5381 9.60854 11.6018C9.86362 11.6655 10.0923 11.8075 10.2624 12.008L14.3124 16.794C14.4695 16.9804 14.6636 17.1321 14.8824 17.2396C15.1011 17.347 15.3399 17.4079 15.5834 17.4182C15.8269 17.4286 16.0699 17.3883 16.297 17.2998C16.5242 17.2113 16.7304 17.0767 16.9028 16.9043C17.0751 16.732 17.2098 16.5257 17.2983 16.2986C17.3867 16.0715 17.4271 15.8284 17.4167 15.5849C17.4063 15.3414 17.3455 15.1027 17.238 14.8839C17.1306 14.6651 16.9788 14.4711 16.7924 14.314L12.0074 10.264C11.807 10.0939 11.6649 9.86517 11.6012 9.61008C11.5376 9.355 11.5555 9.08636 11.6524 8.84199C11.9711 8.03623 12.0749 7.16152 11.9537 6.30357C11.8326 5.44561 11.4905 4.63386 10.9612 3.94787C10.4319 3.26187 9.73345 2.72517 8.93428 2.39037C8.13511 2.05556 7.26266 1.93413 6.40244 2.03799H6.40344Z" fill="#6E6E73"/>
</svg>
