<svg width="408" height="80" viewBox="0 0 408 80" fill="none" xmlns="http://www.w3.org/2000/svg">
<path d="M202.84 73.1502C202.13 73.1502 201.55 72.5702 201.55 71.8702V7.94016C201.55 7.23016 202.13 6.66016 202.84 6.66016C203.55 6.66016 204.12 7.24016 204.12 7.94016V71.8702C204.13 72.5802 203.55 73.1502 202.84 73.1502Z" fill="white"/>
<path d="M124.27 20.2205L116.72 33.3005C115.15 28.5005 111.89 24.2305 107.17 21.5005C105.21 20.3705 103.14 19.5905 101.04 19.1405L96.55 10.1605L92.05 19.1705C86.4 20.4005 81.26 23.8905 78.14 29.2905L56.47 66.7905C52.95 72.8905 45.15 74.9804 39.05 71.4604C37.03 70.3004 35.47 68.6705 34.38 66.7905L5.18999 16.2205C3.42999 13.1705 4.46999 9.27045 7.51999 7.51045C10.57 5.75045 14.47 6.79045 16.23 9.84045L44.81 59.3405C45.08 59.8105 45.76 59.8105 46.04 59.3405L67.08 22.9005C76.47 6.63045 97.28 1.06045 113.55 10.4505C117.93 12.9805 121.53 16.3405 124.27 20.2205ZM187.9 63.5905L158.7 13.0305C157.62 11.1505 156.05 9.52045 154.03 8.36045C147.93 4.84045 140.13 6.93045 136.61 13.0305L114.95 50.5405C111.83 55.9405 106.7 59.4305 101.05 60.6605L96.54 69.6805L92.04 60.6805C89.94 60.2205 87.87 59.4505 85.91 58.3205C81.19 55.5905 77.93 51.3205 76.36 46.5205L68.81 59.6005C71.56 63.4705 75.15 66.8405 79.54 69.3605C95.81 78.7505 116.61 73.1805 126.01 56.9105L147.05 20.4705C147.32 20.0005 148 20.0005 148.28 20.4705L176.86 69.9705C178.62 73.0205 182.52 74.0705 185.57 72.3005C188.61 70.5405 189.66 66.6405 187.9 63.5905Z" fill="url(#paint0_radial_119_288)"/>
<path d="M234 13.9003C234.25 13.1703 235.02 12.8503 235.68 13.0703C236.35 13.3203 236.66 14.1503 236.44 14.8203L229.52 33.3903C228.95 34.9103 228.03 35.6803 226.73 35.6803C225.43 35.6803 224.51 34.9203 223.9 33.3903L217.01 14.8203C216.76 14.1503 217.11 13.3603 217.77 13.1103C218.43 12.8603 219.2 13.1703 219.45 13.8703L226.34 32.8203C226.4 32.9503 226.5 33.1103 226.72 33.1103C226.94 33.1103 227.07 32.9503 227.1 32.8203L234 13.9003Z" fill="white"/>
<path d="M251.08 26.2804C251.08 27.3904 250.51 28.1204 249.21 28.1204H239.72V28.6304C239.72 31.6104 241.66 33.3004 244.45 33.3004C245.59 33.3004 246.89 32.9804 248.32 32.4704C249.46 32.0304 250.16 32.7604 250.16 33.4904C250.16 33.9004 250 34.2804 249.46 34.6304C248.44 35.2304 246.22 35.6504 244.41 35.6504C240.03 35.6504 237.43 32.8904 237.2 28.8204C237.14 27.6104 237.14 25.9904 237.23 25.0104C237.58 20.9104 240.37 18.4404 244.25 18.4404C248.44 18.4404 251.08 21.3004 251.08 25.3304V26.2804ZM248.16 25.9604C248.41 25.9604 248.54 25.8304 248.57 25.5804C248.76 22.6904 247.01 20.7504 244.28 20.7504C241.17 20.7504 239.61 22.7804 239.71 25.9604H248.16Z" fill="white"/>
<path d="M264.57 19.9897C264.57 20.4997 264.19 21.1597 263.3 21.1597C262.67 21.1597 261.9 20.9097 260.79 20.9097C259.01 20.9397 258.22 21.8297 258.22 23.7697V34.1797C258.22 34.9097 257.65 35.4797 256.92 35.4797C256.22 35.4797 255.62 34.9097 255.62 34.1797V23.4797C255.62 20.3697 257.46 18.4297 260.79 18.4297C261.87 18.4297 262.95 18.5897 263.55 18.7797C264.29 18.9797 264.57 19.3897 264.57 19.9897Z" fill="white"/>
<path d="M281.97 20.5299L277.11 33.5499C276.6 34.8799 275.74 35.5499 274.63 35.5499C273.55 35.5499 272.69 34.8799 272.25 33.5799L267.33 20.4699C266.95 19.4899 267.65 18.6299 268.57 18.6299C269.11 18.6299 269.55 19.0399 269.74 19.5499L274.5 32.7199C274.53 32.8199 274.6 32.8499 274.66 32.8499C274.72 32.8499 274.79 32.8199 274.82 32.7199L279.49 19.6999C279.71 19.0999 280.16 18.6799 280.76 18.6799C281.68 18.6899 282.32 19.6099 281.97 20.5299Z" fill="white"/>
<path d="M299.02 24.7197C299.12 26.0197 299.12 27.9597 299.02 29.2297C298.8 32.9397 295.88 35.6397 291.94 35.6397C288.04 35.6397 285.08 32.9397 284.86 29.2297C284.8 27.9597 284.8 26.0197 284.86 24.7197C285.08 21.0097 288.03 18.4297 291.94 18.4297C295.88 18.4397 298.8 21.0097 299.02 24.7197ZM287.43 24.9097C287.37 26.0197 287.37 27.9897 287.43 29.0697C287.65 31.5497 289.37 33.2297 291.94 33.2297C294.51 33.2297 296.23 31.5497 296.45 29.0697C296.51 27.9897 296.51 26.0197 296.45 24.9097C296.29 22.5597 294.61 20.8497 291.94 20.8497C289.27 20.8497 287.59 22.5597 287.43 24.9097Z" fill="white"/>
<path d="M317.02 26.2804C317.02 27.3904 316.45 28.1204 315.15 28.1204H305.66V28.6304C305.66 31.6104 307.6 33.3004 310.39 33.3004C311.53 33.3004 312.83 32.9804 314.26 32.4704C315.4 32.0304 316.1 32.7604 316.1 33.4904C316.1 33.9004 315.94 34.2804 315.4 34.6304C314.38 35.2304 312.16 35.6504 310.35 35.6504C305.97 35.6504 303.37 32.8904 303.14 28.8204C303.08 27.6104 303.08 25.9904 303.17 25.0104C303.52 20.9104 306.31 18.4404 310.19 18.4404C314.38 18.4404 317.02 21.3004 317.02 25.3304V26.2804V26.2804ZM314.1 25.9604C314.35 25.9604 314.48 25.8304 314.51 25.5804C314.7 22.6904 312.95 20.7504 310.22 20.7504C307.11 20.7504 305.55 22.7804 305.65 25.9604H314.1Z" fill="white"/>
<path d="M330.51 19.9897C330.51 20.4997 330.13 21.1597 329.24 21.1597C328.61 21.1597 327.84 20.9097 326.73 20.9097C324.95 20.9397 324.16 21.8297 324.16 23.7697V34.1797C324.16 34.9097 323.59 35.4797 322.86 35.4797C322.16 35.4797 321.56 34.9097 321.56 34.1797V23.4797C321.56 20.3697 323.4 18.4297 326.74 18.4297C327.82 18.4297 328.9 18.5897 329.5 18.7797C330.23 18.9797 330.51 19.3897 330.51 19.9897Z" fill="white"/>
<path d="M342.51 19.9897C342.51 20.4997 342.13 21.1597 341.24 21.1597C340.61 21.1597 339.84 20.9097 338.73 20.9097C336.95 20.9397 336.16 21.8297 336.16 23.7697V34.1797C336.16 34.9097 335.59 35.4797 334.86 35.4797C334.16 35.4797 333.56 34.9097 333.56 34.1797V23.4797C333.56 20.3697 335.4 18.4297 338.73 18.4297C339.81 18.4297 340.89 18.5897 341.49 18.7797C342.23 18.9797 342.51 19.3897 342.51 19.9897Z" fill="white"/>
<path d="M358.58 26.2804C358.58 27.3904 358.01 28.1204 356.71 28.1204H347.22V28.6304C347.22 31.6104 349.16 33.3004 351.95 33.3004C353.09 33.3004 354.39 32.9804 355.82 32.4704C356.96 32.0304 357.66 32.7604 357.66 33.4904C357.66 33.9004 357.5 34.2804 356.96 34.6304C355.94 35.2304 353.72 35.6504 351.91 35.6504C347.53 35.6504 344.93 32.8904 344.7 28.8204C344.64 27.6104 344.64 25.9904 344.73 25.0104C345.08 20.9104 347.87 18.4404 351.75 18.4404C355.94 18.4404 358.58 21.3004 358.58 25.3304V26.2804V26.2804ZM355.66 25.9604C355.91 25.9604 356.04 25.8304 356.07 25.5804C356.26 22.6904 354.51 20.7504 351.78 20.7504C348.67 20.7504 347.11 22.7804 347.21 25.9604H355.66Z" fill="white"/>
<path d="M376.45 34.1797C376.45 38.4997 373.88 41.3197 368.51 41.3197C367.46 41.3197 366.26 41.1897 364.95 40.9697C364.32 40.8397 363.81 40.4597 363.81 39.7997C363.81 39.0997 364.32 38.3697 365.3 38.5597C366.54 38.8097 367.62 38.9397 368.6 38.9397C372.19 38.9397 373.87 37.2297 373.87 34.1097C372.73 34.6497 371.08 35.1897 369.17 35.1897C365.23 35.1897 362.85 32.6197 362.63 28.8697C362.57 27.6297 362.57 26.1097 362.63 24.8697C362.85 21.0897 365.46 18.4297 369.27 18.4297C372.6 18.4297 375.05 19.6697 375.9 20.3297C376.31 20.5797 376.44 20.9297 376.44 21.4397V34.1797H376.45ZM365.21 25.0397C365.15 26.1497 365.18 27.6397 365.21 28.7197C365.4 31.1997 366.67 32.8197 369.24 32.8197C371.81 32.8197 373.27 31.9897 373.88 31.5197V22.0297C373.78 21.9297 372.07 20.8897 369.59 20.8897C366.71 20.8797 365.44 22.5597 365.21 25.0397Z" fill="white"/>
<path d="M383.12 16.1202C382.23 16.1202 381.56 15.3602 381.56 14.5002C381.56 13.6102 382.23 12.9102 383.12 12.9102C384.01 12.9102 384.71 13.6102 384.71 14.5002C384.71 15.3602 384.01 16.1202 383.12 16.1202ZM384.42 19.9902V34.1502C384.42 34.9102 383.88 35.4802 383.12 35.4802C382.45 35.4802 381.85 34.9102 381.85 34.1502V19.9902C381.85 19.2602 382.39 18.6602 383.12 18.6602C383.85 18.6602 384.42 19.2602 384.42 19.9902Z" fill="white"/>
<path d="M403.95 24.7197C404.05 26.0197 404.05 27.9597 403.95 29.2297C403.73 32.9397 400.81 35.6397 396.87 35.6397C392.97 35.6397 390.01 32.9397 389.79 29.2297C389.73 27.9597 389.73 26.0197 389.79 24.7197C390.01 21.0097 392.96 18.4297 396.87 18.4297C400.8 18.4397 403.72 21.0097 403.95 24.7197ZM392.36 24.9097C392.3 26.0197 392.3 27.9897 392.36 29.0697C392.58 31.5497 394.3 33.2297 396.87 33.2297C399.44 33.2297 401.16 31.5497 401.38 29.0697C401.44 27.9897 401.44 26.0197 401.38 24.9097C401.22 22.5597 399.54 20.8497 396.87 20.8497C394.2 20.8497 392.52 22.5597 392.36 24.9097Z" fill="white"/>
<path d="M231.93 59.3002H221.8L219.45 65.9302C219.2 66.6002 218.43 66.9102 217.74 66.6602C217.07 66.4102 216.79 65.6102 217.01 64.9802L223.61 46.5702C224.21 44.9202 225.45 44.1602 226.88 44.1602C228.31 44.1602 229.55 44.9202 230.12 46.5702L236.72 64.9802C236.94 65.5802 236.66 66.4102 235.99 66.6602C235.32 66.9102 234.53 66.6002 234.28 65.9302L231.93 59.3002ZM222.69 56.8302H231.04L227.71 47.3402C227.58 46.9602 227.3 46.7102 226.88 46.7102C226.47 46.7102 226.18 46.9602 226.05 47.3402L222.69 56.8302Z" fill="white"/>
<path d="M262.4 65.5305C262.4 66.2905 261.86 66.8605 261.13 66.8605C260.43 66.8605 259.83 66.2905 259.83 65.5305V56.4505C259.83 53.5305 258.56 52.2605 256.21 52.2605C254.43 52.2605 253.23 53.0505 252.59 53.9405V65.5305C252.59 66.2905 252.05 66.8605 251.32 66.8605C250.62 66.8605 250.02 66.2905 250.02 65.5305V56.1605C250.02 53.4305 248.62 52.2605 246.4 52.2605C243.92 52.2605 242.88 53.2405 242.78 53.3105V65.5305C242.78 66.2905 242.24 66.8605 241.51 66.8605C240.81 66.8605 240.21 66.2905 240.21 65.5305V52.7005C240.21 52.1005 240.4 51.8405 240.88 51.4605C242.09 50.5405 244.15 49.8105 246.37 49.8105C248.69 49.8105 250.27 50.4805 251.26 51.7505C252.24 50.9205 253.7 49.8105 256.28 49.8105C260.63 49.8105 262.41 52.1305 262.41 56.2905V65.5305H262.4Z" fill="white"/>
<path d="M278.85 61.9405C278.85 65.0505 276.37 67.0205 272.69 67.0205C270.31 67.0205 268.47 66.4205 267.04 65.2405C266.53 64.8305 266.44 64.0305 266.79 63.5305C267.2 62.9905 267.9 62.8305 268.57 63.2805C269.65 64.0705 270.63 64.7105 272.92 64.7105C275.08 64.7105 276.32 63.5705 276.32 62.0705C276.32 60.9605 275.59 60.2305 273.78 59.7805C272.7 59.5305 272.7 59.5605 271.49 59.2405C268.54 58.4805 267.01 57.1105 267.01 54.7305C267.01 51.7105 269.45 49.8105 272.95 49.8105C274.76 49.8105 276.51 50.4105 277.49 51.1805C278.12 51.6905 278.03 52.5505 277.65 52.9605C277.24 53.4405 276.54 53.4705 275.94 53.1205C274.92 52.5205 273.97 52.1705 272.86 52.1705C270.64 52.1705 269.53 53.0905 269.53 54.6505C269.53 55.6705 270.1 56.3305 272.01 56.8405C273.03 57.1305 274.14 57.3505 274.64 57.4705C277.39 58.1605 278.85 59.6205 278.85 61.9405Z" fill="white"/>
<path d="M287.9 67.0199C284.5 67.0199 283.01 64.7699 283.01 61.7799V47.9699C283.01 47.2399 283.58 46.6699 284.28 46.6699C285.01 46.6699 285.58 47.2399 285.58 47.9699V50.5699H290.37C291 50.5699 291.58 51.0799 291.58 51.7399C291.58 52.3999 291.01 52.9099 290.37 52.9099H285.58V61.8599C285.58 63.4499 286.31 64.6199 288.02 64.6199C288.94 64.6199 289.8 64.2699 290.56 64.0499C291.61 63.7999 292.21 64.4299 292.21 65.2199C292.21 65.7899 291.89 66.1999 291.16 66.4599C290.34 66.7999 289.11 67.0199 287.9 67.0199Z" fill="white"/>
<path d="M309.11 57.6505C309.11 58.7605 308.54 59.4905 307.24 59.4905H297.75V60.0005C297.75 62.9805 299.69 64.6705 302.48 64.6705C303.62 64.6705 304.92 64.3505 306.35 63.8405C307.49 63.4005 308.19 64.1305 308.19 64.8605C308.19 65.2705 308.03 65.6505 307.49 66.0005C306.47 66.6005 304.25 67.0205 302.44 67.0205C298.06 67.0205 295.46 64.2605 295.23 60.1905C295.17 58.9805 295.17 57.3605 295.26 56.3805C295.61 52.2805 298.4 49.8105 302.28 49.8105C306.47 49.8105 309.11 52.6705 309.11 56.7005V57.6505V57.6505ZM306.19 57.3405C306.44 57.3405 306.57 57.2105 306.6 56.9605C306.79 54.0705 305.04 52.1305 302.31 52.1305C299.2 52.1305 297.64 54.1605 297.74 57.3405H306.19Z" fill="white"/>
<path d="M322.6 51.3705C322.6 51.8805 322.22 52.5405 321.33 52.5405C320.7 52.5405 319.93 52.2905 318.82 52.2905C317.04 52.3205 316.25 53.2105 316.25 55.1505V65.5605C316.25 66.2905 315.68 66.8605 314.95 66.8605C314.25 66.8605 313.65 66.2905 313.65 65.5605V54.8605C313.65 51.7505 315.49 49.8105 318.82 49.8105C319.9 49.8105 320.98 49.9705 321.58 50.1605C322.31 50.3505 322.6 50.7605 322.6 51.3705Z" fill="white"/>
<path d="M331.84 49.8099C333.55 49.8099 335.27 50.3199 336.41 50.8299V45.4999C336.41 44.7699 336.98 44.1699 337.68 44.1699C338.44 44.1699 338.98 44.7699 338.98 45.4999V64.0699C338.98 64.5099 338.88 64.7999 338.44 65.1199C337.68 65.6599 335.08 67.0199 332.19 67.0199C327.97 67.0199 325.49 64.5099 325.17 60.6099C325.07 59.4999 325.07 57.2799 325.17 56.1299C325.49 52.1599 327.81 49.8099 331.84 49.8099ZM332.22 64.6099C333.74 64.6099 335.71 63.8499 336.41 63.3099V53.3399C335.65 52.8999 333.81 52.2299 331.93 52.2299C329.2 52.2299 327.93 53.6599 327.74 56.2599C327.68 57.2099 327.68 59.3399 327.74 60.4199C328 63.1799 329.46 64.6099 332.22 64.6099Z" fill="white"/>
<path d="M356.82 64.1903C356.82 64.6703 356.69 64.9803 356.28 65.2403C355.42 65.8703 352.88 67.0203 349.8 67.0203C345.64 67.0203 343.45 64.8003 343.45 61.6203C343.45 58.8303 345.55 56.4803 349.83 56.4803C351.35 56.4803 352.62 56.7003 354.27 57.1503V55.8503C354.27 53.2803 353 52.2003 350.3 52.2003C348.84 52.2003 347.44 52.6803 346.52 53.0303C345.44 53.4403 344.68 52.8403 344.68 52.0503C344.68 51.6103 344.9 51.1303 345.51 50.8403C346.49 50.3603 348.4 49.8203 350.56 49.8203C354.34 49.8203 356.81 51.6003 356.81 55.7603V64.1903H356.82ZM354.28 63.5303V59.3703C352.66 58.9603 351.49 58.6703 349.87 58.6703C347.71 58.6703 346.03 59.7203 346.03 61.5603C346.03 63.5603 347.36 64.7003 350.09 64.7003C352.66 64.7003 354 63.8103 354.28 63.5303Z" fill="white"/>
<path d="M384.32 65.5305C384.32 66.2905 383.78 66.8605 383.05 66.8605C382.35 66.8605 381.75 66.2905 381.75 65.5305V56.4505C381.75 53.5305 380.48 52.2605 378.13 52.2605C376.35 52.2605 375.15 53.0505 374.51 53.9405V65.5305C374.51 66.2905 373.97 66.8605 373.24 66.8605C372.54 66.8605 371.94 66.2905 371.94 65.5305V56.1605C371.94 53.4305 370.54 52.2605 368.32 52.2605C365.84 52.2605 364.8 53.2405 364.7 53.3105V65.5305C364.7 66.2905 364.16 66.8605 363.43 66.8605C362.73 66.8605 362.13 66.2905 362.13 65.5305V52.7005C362.13 52.1005 362.32 51.8405 362.8 51.4605C364.01 50.5405 366.07 49.8105 368.29 49.8105C370.61 49.8105 372.19 50.4805 373.18 51.7505C374.16 50.9205 375.62 49.8105 378.2 49.8105C382.55 49.8105 384.33 52.1305 384.33 56.2905V65.5305H384.32Z" fill="white"/>
<defs>
<radialGradient id="paint0_radial_119_288" cx="0" cy="0" r="1" gradientUnits="userSpaceOnUse" gradientTransform="translate(96.5426 39.9068) scale(69.4984 69.4984)">
<stop offset="0.35" stop-color="#E5316C"/>
<stop offset="1" stop-color="#B6006C"/>
</radialGradient>
</defs>
</svg>
