<svg width="49" height="37" viewBox="0 0 49 37" fill="none" xmlns="http://www.w3.org/2000/svg">
<path d="M24.4957 0C17.6227 0 12.1192 3.03929 8.11279 6.6567C4.13189 10.2411 1.46945 14.5357 0.210529 17.4842C-0.0701762 18.1366 -0.0701762 18.8634 0.210529 19.5158C1.46945 22.4643 4.13189 26.7589 8.11279 30.3433C12.1192 33.9607 17.6227 37 24.4957 37C31.3688 37 36.8723 33.9607 40.8787 30.3433C44.8596 26.7507 47.522 22.4643 48.7895 19.5158C49.0702 18.8634 49.0702 18.1366 48.7895 17.4842C47.522 14.5357 44.8596 10.2411 40.8787 6.6567C36.8723 3.03929 31.3688 0 24.4957 0ZM36.7447 18.5C36.7447 25.0658 31.2582 30.3929 24.4957 30.3929C17.7333 30.3929 12.2468 25.0658 12.2468 18.5C12.2468 11.9342 17.7333 6.60714 24.4957 6.60714C31.2582 6.60714 36.7447 11.9342 36.7447 18.5ZM24.4957 13.2143C24.4957 16.1297 22.0545 18.5 19.0518 18.5C18.0736 18.5 17.1549 18.2522 16.3638 17.8062C16.3468 18.0375 16.3298 18.2605 16.3298 18.5C16.3298 22.8772 19.9875 26.4286 24.4957 26.4286C29.004 26.4286 32.6617 22.8772 32.6617 18.5C32.6617 14.1228 29.004 10.5714 24.4957 10.5714C24.2576 10.5714 24.0194 10.5797 23.7812 10.6045C24.2321 11.3725 24.4957 12.2645 24.4957 13.2143Z" fill="url(#paint0_linear_1_79)"/>
<defs>
<linearGradient id="paint0_linear_1_79" x1="0" y1="0" x2="46.037" y2="40.3782" gradientUnits="userSpaceOnUse">
<stop stop-color="#FF0053"/>
<stop offset="1" stop-color="#CD0069"/>
</linearGradient>
</defs>
</svg>
